<mxfile host="app.diagrams.net" agent="Mozilla/5.0 (Windows NT 10.0; Win64; x64) AppleWebKit/537.36 (KHTML, like Gecko) Chrome/130.0.0.0 Safari/537.36" version="24.8.4">
  <diagram name="Page-1" id="5FTDPa6ZPerxx-bNa-OX">
    <mxGraphModel dx="733" dy="412" grid="1" gridSize="10" guides="1" tooltips="1" connect="1" arrows="1" fold="1" page="1" pageScale="1" pageWidth="1169" pageHeight="827" math="0" shadow="0">
      <root>
        <mxCell id="0" />
        <mxCell id="1" parent="0" />
        <mxCell id="sB1fadUoKpV7pgVS4pwK-9" style="edgeStyle=orthogonalEdgeStyle;rounded=1;orthogonalLoop=1;jettySize=auto;html=1;exitX=0.5;exitY=0;exitDx=0;exitDy=0;entryX=0;entryY=0.75;entryDx=0;entryDy=0;strokeWidth=3;fillColor=#e1d5e7;strokeColor=#9673a6;shadow=1;curved=0;flowAnimation=1;" edge="1" parent="1" source="sB1fadUoKpV7pgVS4pwK-1" target="sB1fadUoKpV7pgVS4pwK-5">
          <mxGeometry relative="1" as="geometry" />
        </mxCell>
        <mxCell id="sB1fadUoKpV7pgVS4pwK-1" value="" style="shape=image;verticalLabelPosition=bottom;labelBackgroundColor=default;verticalAlign=top;aspect=fixed;imageAspect=0;image=https://reliefweb.int/themes/custom/common_design_subtheme/img/logos/rw-logo-desktop.svg;strokeWidth=3;fillColor=#e1d5e7;strokeColor=#9673a6;" vertex="1" parent="1">
          <mxGeometry x="302.83" y="488.35" width="194.34" height="83.29" as="geometry" />
        </mxCell>
        <mxCell id="sB1fadUoKpV7pgVS4pwK-10" style="edgeStyle=orthogonalEdgeStyle;rounded=1;orthogonalLoop=1;jettySize=auto;html=1;exitX=1;exitY=0.25;exitDx=0;exitDy=0;strokeWidth=3;fillColor=#e1d5e7;strokeColor=#9673a6;shadow=1;curved=0;flowAnimation=1;" edge="1" parent="1" source="sB1fadUoKpV7pgVS4pwK-5" target="sB1fadUoKpV7pgVS4pwK-7">
          <mxGeometry relative="1" as="geometry" />
        </mxCell>
        <mxCell id="sB1fadUoKpV7pgVS4pwK-14" style="edgeStyle=orthogonalEdgeStyle;rounded=1;orthogonalLoop=1;jettySize=auto;html=1;exitX=0.5;exitY=0;exitDx=0;exitDy=0;entryX=0;entryY=0.5;entryDx=0;entryDy=0;strokeWidth=3;fillColor=#e1d5e7;strokeColor=#9673a6;shadow=1;curved=0;flowAnimation=1;" edge="1" parent="1" source="sB1fadUoKpV7pgVS4pwK-5" target="sB1fadUoKpV7pgVS4pwK-13">
          <mxGeometry relative="1" as="geometry" />
        </mxCell>
        <mxCell id="sB1fadUoKpV7pgVS4pwK-16" style="edgeStyle=orthogonalEdgeStyle;rounded=1;orthogonalLoop=1;jettySize=auto;html=1;exitX=0.25;exitY=0;exitDx=0;exitDy=0;entryX=1;entryY=0.5;entryDx=0;entryDy=0;strokeWidth=3;fillColor=#e1d5e7;strokeColor=#9673a6;shadow=1;curved=0;flowAnimation=1;" edge="1" parent="1" source="sB1fadUoKpV7pgVS4pwK-5" target="sB1fadUoKpV7pgVS4pwK-15">
          <mxGeometry relative="1" as="geometry" />
        </mxCell>
        <mxCell id="sB1fadUoKpV7pgVS4pwK-5" value="" style="shape=image;verticalLabelPosition=bottom;labelBackgroundColor=default;verticalAlign=top;aspect=fixed;imageAspect=0;image=https://upload.wikimedia.org/wikipedia/commons/thumb/c/c3/Python-logo-notext.svg/701px-Python-logo-notext.svg.png;strokeWidth=3;fillColor=#e1d5e7;strokeColor=#9673a6;shadow=1;" vertex="1" parent="1">
          <mxGeometry x="520" y="350" width="100.27" height="110" as="geometry" />
        </mxCell>
        <mxCell id="sB1fadUoKpV7pgVS4pwK-11" style="edgeStyle=orthogonalEdgeStyle;rounded=1;orthogonalLoop=1;jettySize=auto;html=1;exitX=0;exitY=0.5;exitDx=0;exitDy=0;entryX=0.5;entryY=1;entryDx=0;entryDy=0;strokeWidth=3;fillColor=#e1d5e7;strokeColor=#9673a6;shadow=1;curved=0;flowAnimation=1;" edge="1" parent="1" source="sB1fadUoKpV7pgVS4pwK-7" target="sB1fadUoKpV7pgVS4pwK-5">
          <mxGeometry relative="1" as="geometry" />
        </mxCell>
        <mxCell id="sB1fadUoKpV7pgVS4pwK-7" value="" style="shape=image;verticalLabelPosition=bottom;labelBackgroundColor=default;verticalAlign=top;aspect=fixed;imageAspect=0;image=https://cdn.freelogovectors.net/wp-content/uploads/2023/09/chatgpt_logo-freelogovectors.net_-180x133.png;strokeWidth=3;fillColor=#e1d5e7;strokeColor=#9673a6;shadow=1;" vertex="1" parent="1">
          <mxGeometry x="680" y="470" width="120" height="120" as="geometry" />
        </mxCell>
        <mxCell id="sB1fadUoKpV7pgVS4pwK-13" value="" style="shape=image;verticalLabelPosition=bottom;labelBackgroundColor=default;verticalAlign=top;aspect=fixed;imageAspect=0;image=https://www.svgrepo.com/show/303161/gmail-icon-logo.svg;strokeWidth=3;fillColor=#e1d5e7;strokeColor=#9673a6;shadow=1;" vertex="1" parent="1">
          <mxGeometry x="670" y="212.5" width="75" height="75" as="geometry" />
        </mxCell>
        <mxCell id="sB1fadUoKpV7pgVS4pwK-17" style="edgeStyle=orthogonalEdgeStyle;rounded=1;orthogonalLoop=1;jettySize=auto;html=1;exitX=0.5;exitY=1;exitDx=0;exitDy=0;entryX=0;entryY=0.5;entryDx=0;entryDy=0;strokeWidth=3;fillColor=#e1d5e7;strokeColor=#9673a6;shadow=1;curved=0;flowAnimation=1;" edge="1" parent="1" source="sB1fadUoKpV7pgVS4pwK-15" target="sB1fadUoKpV7pgVS4pwK-5">
          <mxGeometry relative="1" as="geometry" />
        </mxCell>
        <mxCell id="sB1fadUoKpV7pgVS4pwK-15" value="" style="shape=image;verticalLabelPosition=bottom;labelBackgroundColor=default;verticalAlign=top;aspect=fixed;imageAspect=0;image=https://freesvg.org/img/WWW-Icon.png;strokeWidth=3;fillColor=#e1d5e7;strokeColor=#9673a6;shadow=1;" vertex="1" parent="1">
          <mxGeometry x="350" y="200" width="100" height="100" as="geometry" />
        </mxCell>
        <mxCell id="sB1fadUoKpV7pgVS4pwK-19" value="AUTOMATED JOB SEARCH AND APPLICATION WORKFLOW" style="rounded=0;whiteSpace=wrap;html=1;" vertex="1" parent="1">
          <mxGeometry x="280" y="152.5" width="540" height="37.5" as="geometry" />
        </mxCell>
      </root>
    </mxGraphModel>
  </diagram>
</mxfile>
